<svg xmlns="http://www.w3.org/2000/svg" viewBox="0 0 240 160" role="img" aria-labelledby="title desc">
  <title id="title">conDitar mark</title>
  <desc id="desc">A navy D shaped molecular mark with blue hexagons and particles.</desc>
  <defs>
    <linearGradient id="navy" x1="33" y1="24" x2="201" y2="142" gradientUnits="userSpaceOnUse">
      <stop stop-color="#071D5B"/>
      <stop offset="1" stop-color="#010B2C"/>
    </linearGradient>
    <linearGradient id="blue" x1="58" y1="34" x2="174" y2="129" gradientUnits="userSpaceOnUse">
      <stop stop-color="#075BFF"/>
      <stop offset="1" stop-color="#2C8BFF"/>
    </linearGradient>
    <filter id="softShadow" x="-15%" y="-18%" width="130%" height="136%">
      <feDropShadow dx="0" dy="5" stdDeviation="6" flood-color="#071D5B" flood-opacity=".16"/>
    </filter>
  </defs>
  <path filter="url(#softShadow)" fill="url(#navy)" d="M103 27h50c43 0 75 32 75 53s-32 53-75 53h-50c-5 0-8-3-8-8v-15c0-5 3-8 8-8h47c23 0 41-14 41-22s-18-22-41-22h-47c-5 0-8-3-8-8V35c0-5 3-8 8-8z"/>
  <path fill="#fff" d="M114 58h35c23 0 41 14 41 22s-18 22-41 22h-35c-5 0-8-3-8-8V66c0-5 3-8 8-8z"/>
  <g fill="url(#blue)">
    <path d="M114 39 128 47v16l-14 8-14-8V47z"/>
    <path d="M92 52 106 60v16l-14 8-14-8V60z"/>
    <path d="M116 66 130 74v16l-14 8-14-8V74z"/>
    <path d="M94 80 108 88v16l-14 8-14-8V88z"/>
    <path d="M118 94 132 102v16l-14 8-14-8v-16z"/>
    <path d="M140 52 154 60v16l-14 8-14-8V60z"/>
    <path d="M142 80 156 88v16l-14 8-14-8V88z"/>
    <path d="M72 68 83 74v13l-11 7-11-7V74z"/>
    <path d="M72 96 83 102v13l-11 7-11-7v-13z"/>
  </g>
  <g fill="#075BFF">
    <circle cx="48" cy="83" r="6"/>
    <circle cx="35" cy="59" r="4.8" opacity=".9"/>
    <circle cx="24" cy="104" r="4.3" opacity=".65"/>
    <circle cx="18" cy="75" r="3.2" opacity=".45"/>
    <circle cx="56" cy="120" r="3.5" opacity=".55"/>
  </g>
</svg>
