<svg xmlns="http://www.w3.org/2000/svg" viewBox="0 0 640 512" role="img" aria-labelledby="title desc">
  <title id="title">conDitar CD ligand logo concept</title>
  <desc id="desc">A CD monogram with a ligand graph crossing the shared center.</desc>
  <defs>
    <linearGradient id="mark-stroke" x1="96" y1="70" x2="548" y2="430" gradientUnits="userSpaceOnUse">
      <stop offset="0" stop-color="#263632"/>
      <stop offset=".5" stop-color="#2f756d"/>
      <stop offset="1" stop-color="#1f342f"/>
    </linearGradient>
    <filter id="soft-shadow" x="-20%" y="-20%" width="140%" height="140%">
      <feDropShadow dx="0" dy="14" stdDeviation="18" flood-color="#1f342f" flood-opacity=".14"/>
    </filter>
  </defs>
  <rect width="640" height="512" rx="104" fill="#f7f9f8"/>
  <path
    d="M303 132c-34-33-85-47-133-32-67 20-110 86-99 155 11 71 71 123 143 123 35 0 68-12 94-34"
    fill="none"
    stroke="url(#mark-stroke)"
    stroke-width="62"
    stroke-linecap="round"
    filter="url(#soft-shadow)"
  />
  <path
    d="M352 101h51c86 0 151 66 151 154s-65 156-151 156h-51z"
    fill="none"
    stroke="url(#mark-stroke)"
    stroke-width="58"
    stroke-linejoin="round"
    filter="url(#soft-shadow)"
  />
  <path
    d="M354 154h43c55 0 96 43 96 101s-41 103-96 103h-43z"
    fill="none"
    stroke="#d9e8e2"
    stroke-width="12"
    stroke-linejoin="round"
  />
  <g fill="none" stroke="#2f756d" stroke-width="14" stroke-linecap="round" stroke-linejoin="round">
    <path d="M206 262l56-39 62 28 52-62"/>
    <path d="M262 223l22 82 40-54"/>
  </g>
  <g stroke="#f7f9f8" stroke-width="8">
    <circle cx="206" cy="262" r="24" fill="#263632"/>
    <circle cx="262" cy="223" r="23" fill="#2f756d"/>
    <circle cx="324" cy="251" r="25" fill="#263632"/>
    <circle cx="376" cy="189" r="23" fill="#c88f36"/>
    <circle cx="284" cy="305" r="21" fill="#7ea69b"/>
  </g>
</svg>
