<svg xmlns="http://www.w3.org/2000/svg" viewBox="0 0 512 512" role="img" aria-labelledby="title desc">
  <title id="title">conDitar C and ligand logo concept</title>
  <desc id="desc">A stylized C-shaped binding pocket with a ligand graph in the negative space.</desc>
  <defs>
    <linearGradient id="c-stroke" x1="102" y1="72" x2="400" y2="442" gradientUnits="userSpaceOnUse">
      <stop offset="0" stop-color="#263632"/>
      <stop offset=".58" stop-color="#2f756d"/>
      <stop offset="1" stop-color="#1f342f"/>
    </linearGradient>
    <filter id="soft-shadow" x="-20%" y="-20%" width="140%" height="140%">
      <feDropShadow dx="0" dy="14" stdDeviation="18" flood-color="#1f342f" flood-opacity=".15"/>
    </filter>
  </defs>
  <rect width="512" height="512" rx="104" fill="#f7f9f8"/>
  <path
    d="M378 135c-34-34-82-51-130-44-70 10-124 66-134 135-11 75 31 146 101 174 55 22 118 9 162-31"
    fill="none"
    stroke="url(#c-stroke)"
    stroke-width="68"
    stroke-linecap="round"
    filter="url(#soft-shadow)"
  />
  <path
    d="M362 175c-24-27-61-41-99-35-50 8-89 48-97 98-8 56 24 108 77 127 38 14 81 4 111-22"
    fill="none"
    stroke="#d9e8e2"
    stroke-width="14"
    stroke-linecap="round"
  />
  <g fill="none" stroke="#2f756d" stroke-width="15" stroke-linecap="round" stroke-linejoin="round">
    <path d="M209 261l47-38 56 24 42-54"/>
    <path d="M256 223l18 75 38-51"/>
  </g>
  <g stroke="#f7f9f8" stroke-width="8">
    <circle cx="209" cy="261" r="25" fill="#263632"/>
    <circle cx="256" cy="223" r="24" fill="#2f756d"/>
    <circle cx="312" cy="247" r="25" fill="#263632"/>
    <circle cx="354" cy="193" r="23" fill="#c88f36"/>
    <circle cx="274" cy="298" r="21" fill="#7ea69b"/>
  </g>
</svg>
