<svg xmlns="http://www.w3.org/2000/svg" viewBox="0 0 720 512" role="img" aria-labelledby="title desc">
  <title id="title">conDitar cD generation trail logo concept</title>
  <desc id="desc">A lowercase c produces a trail of candidate molecules that resolve into an uppercase D.</desc>
  <defs>
    <linearGradient id="stroke" x1="112" y1="74" x2="612" y2="430" gradientUnits="userSpaceOnUse">
      <stop offset="0" stop-color="#263632"/>
      <stop offset=".6" stop-color="#2f756d"/>
      <stop offset="1" stop-color="#1f342f"/>
    </linearGradient>
    <filter id="soft-shadow" x="-20%" y="-20%" width="140%" height="140%">
      <feDropShadow dx="0" dy="14" stdDeviation="18" flood-color="#1f342f" flood-opacity=".14"/>
    </filter>
  </defs>
  <rect width="720" height="512" rx="104" fill="#f7f9f8"/>
  <path
    d="M265 183c-25-25-64-34-98-20-43 18-70 63-62 109 8 46 45 82 91 88 31 4 61-7 82-29"
    fill="none"
    stroke="url(#stroke)"
    stroke-width="56"
    stroke-linecap="round"
    filter="url(#soft-shadow)"
  />
  <path
    d="M388 108h54c87 0 154 65 154 148s-67 148-154 148h-54z"
    fill="none"
    stroke="url(#stroke)"
    stroke-width="60"
    stroke-linejoin="round"
    filter="url(#soft-shadow)"
  />
  <g fill="#7ea69b" opacity=".38">
    <circle cx="315" cy="214" r="10"/>
    <circle cx="348" cy="238" r="12"/>
    <circle cx="326" cy="292" r="9"/>
    <circle cx="379" cy="312" r="11"/>
  </g>
  <g fill="none" stroke="#2f756d" stroke-width="14" stroke-linecap="round" stroke-linejoin="round">
    <path d="M196 266l47-36 54 24 58-54 58 46"/>
    <path d="M297 254l15 71 43-125"/>
  </g>
  <g stroke="#f7f9f8" stroke-width="8">
    <circle cx="196" cy="266" r="23" fill="#263632"/>
    <circle cx="243" cy="230" r="22" fill="#2f756d"/>
    <circle cx="297" cy="254" r="24" fill="#263632"/>
    <circle cx="355" cy="200" r="22" fill="#c88f36"/>
    <circle cx="413" cy="246" r="21" fill="#7ea69b"/>
    <circle cx="312" cy="325" r="20" fill="#7ea69b"/>
  </g>
</svg>
