<svg xmlns="http://www.w3.org/2000/svg" viewBox="0 0 720 512" role="img" aria-labelledby="title desc">
  <title id="title">conDitar cD generation emerge logo concept</title>
  <desc id="desc">A lowercase c emits a generated molecular graph into an uppercase D.</desc>
  <defs>
    <linearGradient id="stroke" x1="112" y1="72" x2="610" y2="424" gradientUnits="userSpaceOnUse">
      <stop offset="0" stop-color="#263632"/>
      <stop offset=".55" stop-color="#2f756d"/>
      <stop offset="1" stop-color="#1f342f"/>
    </linearGradient>
    <filter id="soft-shadow" x="-20%" y="-20%" width="140%" height="140%">
      <feDropShadow dx="0" dy="14" stdDeviation="18" flood-color="#1f342f" flood-opacity=".14"/>
    </filter>
  </defs>
  <rect width="720" height="512" rx="104" fill="#f7f9f8"/>
  <path
    d="M264 184c-24-25-63-35-98-22-44 16-72 61-66 108 6 48 44 86 92 94 30 5 61-4 83-25"
    fill="none"
    stroke="url(#stroke)"
    stroke-width="58"
    stroke-linecap="round"
    filter="url(#soft-shadow)"
  />
  <path
    d="M381 111h56c86 0 151 63 151 144s-65 146-151 146h-56z"
    fill="none"
    stroke="url(#stroke)"
    stroke-width="62"
    stroke-linejoin="round"
    filter="url(#soft-shadow)"
  />
  <path
    d="M284 258c31-42 68-64 111-70"
    fill="none"
    stroke="#c88f36"
    stroke-width="14"
    stroke-linecap="round"
    stroke-dasharray="2 28"
  />
  <g fill="none" stroke="#2f756d" stroke-width="14" stroke-linecap="round" stroke-linejoin="round">
    <path d="M211 268l48-34 54 24 45-48 62 30"/>
    <path d="M313 258l-9 68 54-116"/>
  </g>
  <g stroke="#f7f9f8" stroke-width="8">
    <circle cx="211" cy="268" r="23" fill="#263632"/>
    <circle cx="259" cy="234" r="22" fill="#2f756d"/>
    <circle cx="313" cy="258" r="24" fill="#263632"/>
    <circle cx="358" cy="210" r="22" fill="#c88f36"/>
    <circle cx="420" cy="240" r="21" fill="#7ea69b"/>
    <circle cx="304" cy="326" r="20" fill="#7ea69b"/>
  </g>
</svg>
