<svg xmlns="http://www.w3.org/2000/svg" viewBox="0 0 512 512" role="img" aria-labelledby="title desc">
  <title id="title">conDitar diffusion molecule logo concept</title>
  <desc id="desc">Noisy diffusion particles resolving into a generated molecular graph.</desc>
  <defs>
    <radialGradient id="field" cx="50%" cy="48%" r="54%">
      <stop offset="0" stop-color="#edf5f1"/>
      <stop offset=".78" stop-color="#f7f9f8"/>
    </radialGradient>
    <filter id="soft-shadow" x="-20%" y="-20%" width="140%" height="140%">
      <feDropShadow dx="0" dy="14" stdDeviation="18" flood-color="#1f342f" flood-opacity=".14"/>
    </filter>
  </defs>
  <rect width="512" height="512" rx="112" fill="url(#field)"/>
  <g fill="none" stroke="#7ea69b" stroke-linecap="round" opacity=".58">
    <path d="M126 255c18-87 95-148 184-135 82 12 143 82 141 165" stroke-width="10"/>
    <path d="M160 257c18-62 76-104 141-94 60 9 105 58 109 119" stroke-width="8"/>
    <path d="M195 257c17-38 56-62 98-55 38 6 69 36 77 74" stroke-width="6"/>
  </g>
  <g opacity=".5" fill="#7ea69b">
    <circle cx="123" cy="207" r="7"/><circle cx="154" cy="151" r="5"/><circle cx="218" cy="113" r="6"/>
    <circle cx="302" cy="116" r="5"/><circle cx="391" cy="168" r="7"/><circle cx="430" cy="237" r="5"/>
    <circle cx="384" cy="343" r="6"/><circle cx="290" cy="397" r="5"/><circle cx="181" cy="360" r="7"/>
    <circle cx="111" cy="288" r="5"/>
  </g>
  <g fill="none" stroke="#2f756d" stroke-width="16" stroke-linecap="round" stroke-linejoin="round" filter="url(#soft-shadow)">
    <path d="M151 278l62-48 68 31 67-72 72 43"/>
    <path d="M281 261l19 88 48-160"/>
  </g>
  <g stroke="#f7f9f8" stroke-width="8">
    <circle cx="151" cy="278" r="27" fill="#263632"/>
    <circle cx="213" cy="230" r="25" fill="#2f756d"/>
    <circle cx="281" cy="261" r="28" fill="#263632"/>
    <circle cx="348" cy="189" r="25" fill="#c88f36"/>
    <circle cx="420" cy="232" r="24" fill="#7ea69b"/>
    <circle cx="300" cy="349" r="23" fill="#7ea69b"/>
  </g>
</svg>
