<svg xmlns="http://www.w3.org/2000/svg" viewBox="0 0 760 512" role="img" aria-labelledby="title desc">
  <title id="title">conDitar C-dev ligand logo concept</title>
  <desc id="desc">A C-shaped ligand mark paired with a small dev label for development builds.</desc>
  <defs>
    <linearGradient id="c-stroke" x1="84" y1="72" x2="362" y2="424" gradientUnits="userSpaceOnUse">
      <stop offset="0" stop-color="#263632"/>
      <stop offset=".6" stop-color="#2f756d"/>
      <stop offset="1" stop-color="#1f342f"/>
    </linearGradient>
    <filter id="soft-shadow" x="-20%" y="-20%" width="140%" height="140%">
      <feDropShadow dx="0" dy="14" stdDeviation="18" flood-color="#1f342f" flood-opacity=".14"/>
    </filter>
  </defs>
  <rect width="760" height="512" rx="104" fill="#f7f9f8"/>
  <path
    d="M348 132c-34-34-82-51-130-44-70 10-124 66-134 135-11 75 31 146 101 174 55 22 118 9 162-31"
    fill="none"
    stroke="url(#c-stroke)"
    stroke-width="66"
    stroke-linecap="round"
    filter="url(#soft-shadow)"
  />
  <g fill="none" stroke="#2f756d" stroke-width="14" stroke-linecap="round" stroke-linejoin="round">
    <path d="M184 260l48-38 58 25 42-54"/>
    <path d="M232 222l18 76 40-51"/>
  </g>
  <g stroke="#f7f9f8" stroke-width="8">
    <circle cx="184" cy="260" r="24" fill="#263632"/>
    <circle cx="232" cy="222" r="23" fill="#2f756d"/>
    <circle cx="290" cy="247" r="25" fill="#263632"/>
    <circle cx="332" cy="193" r="22" fill="#c88f36"/>
    <circle cx="250" cy="298" r="20" fill="#7ea69b"/>
  </g>
  <text x="415" y="274" fill="#263632" font-family="Manrope, Avenir Next, Helvetica, Arial, sans-serif" font-size="118" font-weight="750">dev</text>
  <path d="M398 307h244" fill="none" stroke="#c88f36" stroke-width="14" stroke-linecap="round"/>
  <text x="416" y="354" fill="#66746f" font-family="ui-monospace, SFMono-Regular, Menlo, monospace" font-size="28" letter-spacing="8">BUILD</text>
</svg>
