<svg xmlns="http://www.w3.org/2000/svg" viewBox="0 0 512 512" role="img" aria-labelledby="title desc">
  <title id="title">conDitar split C ligand logo concept</title>
  <desc id="desc">A compact C pocket with the open ends visibly displaced by a ligand.</desc>
  <defs>
    <linearGradient id="c-stroke" x1="114" y1="76" x2="402" y2="438" gradientUnits="userSpaceOnUse">
      <stop offset="0" stop-color="#1f342f"/>
      <stop offset=".62" stop-color="#2f756d"/>
      <stop offset="1" stop-color="#263632"/>
    </linearGradient>
    <filter id="soft-shadow" x="-20%" y="-20%" width="140%" height="140%">
      <feDropShadow dx="0" dy="14" stdDeviation="18" flood-color="#1f342f" flood-opacity=".16"/>
    </filter>
  </defs>
  <rect width="512" height="512" rx="112" fill="#f7f9f8"/>
  <path
    d="M359 112c-39-27-88-34-133-18-69 24-112 93-101 165 10 68 62 122 127 134"
    fill="none"
    stroke="url(#c-stroke)"
    stroke-width="76"
    stroke-linecap="round"
    filter="url(#soft-shadow)"
  />
  <path
    d="M387 365c-19 18-42 31-68 37"
    fill="none"
    stroke="url(#c-stroke)"
    stroke-width="76"
    stroke-linecap="round"
    filter="url(#soft-shadow)"
  />
  <path
    d="M346 153c-27-20-64-24-97-10-49 21-78 73-67 125 10 48 49 85 97 93"
    fill="none"
    stroke="#d9e8e2"
    stroke-width="12"
    stroke-linecap="round"
  />
  <g fill="none" stroke="#2f756d" stroke-width="16" stroke-linecap="round" stroke-linejoin="round">
    <path d="M188 269l54-43 58 22 76-79"/>
    <path d="M242 226l32 92 26-70"/>
    <path d="M300 248l72 79"/>
  </g>
  <g stroke="#f7f9f8" stroke-width="8">
    <circle cx="188" cy="269" r="26" fill="#263632"/>
    <circle cx="242" cy="226" r="25" fill="#2f756d"/>
    <circle cx="300" cy="248" r="27" fill="#263632"/>
    <circle cx="376" cy="169" r="24" fill="#c88f36"/>
    <circle cx="372" cy="327" r="23" fill="#7ea69b"/>
    <circle cx="274" cy="318" r="22" fill="#7ea69b"/>
  </g>
</svg>
