<svg xmlns="http://www.w3.org/2000/svg" viewBox="0 0 720 512" role="img" aria-labelledby="title desc">
  <title id="title">conDitar cD seeded generation logo concept</title>
  <desc id="desc">A lowercase c seed grows into an uppercase D filled by generated molecular states.</desc>
  <defs>
    <linearGradient id="stroke" x1="118" y1="76" x2="612" y2="430" gradientUnits="userSpaceOnUse">
      <stop offset="0" stop-color="#1f342f"/>
      <stop offset=".58" stop-color="#2f756d"/>
      <stop offset="1" stop-color="#263632"/>
    </linearGradient>
    <filter id="soft-shadow" x="-20%" y="-20%" width="140%" height="140%">
      <feDropShadow dx="0" dy="14" stdDeviation="18" flood-color="#1f342f" flood-opacity=".14"/>
    </filter>
  </defs>
  <rect width="720" height="512" rx="104" fill="#f7f9f8"/>
  <path
    d="M267 180c-24-24-62-33-96-19-43 17-69 61-62 107 7 45 44 81 89 88 29 4 59-5 80-25"
    fill="none"
    stroke="url(#stroke)"
    stroke-width="56"
    stroke-linecap="round"
    filter="url(#soft-shadow)"
  />
  <path
    d="M379 106h62c86 0 153 66 153 150s-67 150-153 150h-62z"
    fill="#edf5f1"
    stroke="url(#stroke)"
    stroke-width="56"
    stroke-linejoin="round"
    filter="url(#soft-shadow)"
  />
  <path
    d="M308 256c24-24 50-36 79-36 31 0 54 15 84 15 22 0 42-9 60-28"
    fill="none"
    stroke="#c88f36"
    stroke-width="12"
    stroke-linecap="round"
  />
  <g fill="none" stroke="#2f756d" stroke-width="13" stroke-linecap="round" stroke-linejoin="round">
    <path d="M186 260l45-36 48 23 44-41"/>
    <path d="M407 296l43-39 52 20 38-47"/>
    <path d="M231 224l12 70 36-47"/>
    <path d="M450 257l20 62 32-42"/>
  </g>
  <g stroke="#f7f9f8" stroke-width="7">
    <circle cx="186" cy="260" r="22" fill="#263632"/>
    <circle cx="231" cy="224" r="21" fill="#2f756d"/>
    <circle cx="279" cy="247" r="22" fill="#263632"/>
    <circle cx="323" cy="206" r="20" fill="#c88f36"/>
    <circle cx="407" cy="296" r="21" fill="#7ea69b"/>
    <circle cx="450" cy="257" r="22" fill="#2f756d"/>
    <circle cx="502" cy="277" r="21" fill="#263632"/>
    <circle cx="540" cy="230" r="20" fill="#c88f36"/>
  </g>
</svg>
