<svg xmlns="http://www.w3.org/2000/svg" viewBox="0 0 720 512" role="img" aria-labelledby="title desc">
  <title id="title">conDitar cD diffusion contour logo concept</title>
  <desc id="desc">A cD monogram with diffusion contour rings around a generated molecule.</desc>
  <defs>
    <linearGradient id="stroke" x1="112" y1="74" x2="610" y2="430" gradientUnits="userSpaceOnUse">
      <stop offset="0" stop-color="#1f342f"/>
      <stop offset=".58" stop-color="#2f756d"/>
      <stop offset="1" stop-color="#263632"/>
    </linearGradient>
    <filter id="soft-shadow" x="-20%" y="-20%" width="140%" height="140%">
      <feDropShadow dx="0" dy="14" stdDeviation="18" flood-color="#1f342f" flood-opacity=".14"/>
    </filter>
  </defs>
  <rect width="720" height="512" rx="104" fill="#f7f9f8"/>
  <path d="M264 183c-25-25-64-34-98-20-43 18-69 63-62 109 8 46 45 82 91 88 31 4 61-7 82-29"
    fill="none" stroke="url(#stroke)" stroke-width="56" stroke-linecap="round" filter="url(#soft-shadow)"/>
  <path d="M389 108h54c87 0 154 65 154 148s-67 148-154 148h-54z"
    fill="none" stroke="url(#stroke)" stroke-width="60" stroke-linejoin="round" filter="url(#soft-shadow)"/>
  <g fill="none" stroke="#7ea69b" stroke-linecap="round" opacity=".62">
    <path d="M284 254c18-56 76-94 135-82 58 12 98 64 93 122" stroke-width="9"/>
    <path d="M314 254c17-36 55-58 96-50 40 8 69 42 70 82" stroke-width="7"/>
    <path d="M346 255c15-18 39-27 63-22 24 5 42 23 49 46" stroke-width="5"/>
  </g>
  <g fill="none" stroke="#2f756d" stroke-width="14" stroke-linecap="round" stroke-linejoin="round">
    <path d="M205 268l47-36 54 24 58-54 59 42"/>
    <path d="M306 256l16 70 42-124"/>
  </g>
  <g stroke="#f7f9f8" stroke-width="8">
    <circle cx="205" cy="268" r="23" fill="#263632"/>
    <circle cx="252" cy="232" r="22" fill="#2f756d"/>
    <circle cx="306" cy="256" r="24" fill="#263632"/>
    <circle cx="364" cy="202" r="22" fill="#c88f36"/>
    <circle cx="423" cy="244" r="21" fill="#7ea69b"/>
    <circle cx="322" cy="326" r="20" fill="#7ea69b"/>
  </g>
</svg>
