<svg xmlns="http://www.w3.org/2000/svg" viewBox="0 0 512 512" role="img" aria-labelledby="title desc">
  <title id="title">conDitar compact C ligand logo concept</title>
  <desc id="desc">A compact C-shaped pocket enclosing a ligand graph.</desc>
  <defs>
    <linearGradient id="c-stroke" x1="114" y1="78" x2="398" y2="434" gradientUnits="userSpaceOnUse">
      <stop offset="0" stop-color="#1f342f"/>
      <stop offset=".62" stop-color="#2f756d"/>
      <stop offset="1" stop-color="#263632"/>
    </linearGradient>
    <filter id="soft-shadow" x="-20%" y="-20%" width="140%" height="140%">
      <feDropShadow dx="0" dy="14" stdDeviation="18" flood-color="#1f342f" flood-opacity=".16"/>
    </filter>
  </defs>
  <rect width="512" height="512" rx="112" fill="#f7f9f8"/>
  <path
    d="M374 126c-38-34-92-46-143-31-72 21-119 91-107 166 12 76 77 132 154 132 37 0 73-13 101-36"
    fill="none"
    stroke="url(#c-stroke)"
    stroke-width="76"
    stroke-linecap="round"
    filter="url(#soft-shadow)"
  />
  <g fill="none" stroke="#2f756d" stroke-width="16" stroke-linecap="round" stroke-linejoin="round">
    <path d="M190 262l54-40 64 25 45-58"/>
    <path d="M244 222l24 84 40-59"/>
  </g>
  <g stroke="#f7f9f8" stroke-width="8">
    <circle cx="190" cy="262" r="26" fill="#263632"/>
    <circle cx="244" cy="222" r="25" fill="#2f756d"/>
    <circle cx="308" cy="247" r="27" fill="#263632"/>
    <circle cx="353" cy="189" r="24" fill="#c88f36"/>
    <circle cx="268" cy="306" r="22" fill="#7ea69b"/>
  </g>
</svg>
