<svg xmlns="http://www.w3.org/2000/svg" viewBox="0 0 720 512" role="img" aria-labelledby="title desc">
  <title id="title">conDitar cD diffusion denoise logo concept</title>
  <desc id="desc">A cD monogram where noisy particles resolve into a molecular graph.</desc>
  <defs>
    <linearGradient id="stroke" x1="112" y1="72" x2="610" y2="424" gradientUnits="userSpaceOnUse">
      <stop offset="0" stop-color="#263632"/>
      <stop offset=".56" stop-color="#2f756d"/>
      <stop offset="1" stop-color="#1f342f"/>
    </linearGradient>
    <filter id="soft-shadow" x="-20%" y="-20%" width="140%" height="140%">
      <feDropShadow dx="0" dy="14" stdDeviation="18" flood-color="#1f342f" flood-opacity=".14"/>
    </filter>
  </defs>
  <rect width="720" height="512" rx="104" fill="#f7f9f8"/>
  <path d="M265 184c-24-25-63-35-98-22-44 16-72 61-66 108 6 48 44 86 92 94 30 5 61-4 83-25"
    fill="none" stroke="url(#stroke)" stroke-width="56" stroke-linecap="round" filter="url(#soft-shadow)"/>
  <path d="M386 109h54c87 0 153 64 153 147s-66 147-153 147h-54z"
    fill="none" stroke="url(#stroke)" stroke-width="60" stroke-linejoin="round" filter="url(#soft-shadow)"/>
  <g opacity=".42" fill="#7ea69b">
    <circle cx="302" cy="184" r="7"/><circle cx="326" cy="219" r="5"/><circle cx="293" cy="249" r="6"/>
    <circle cx="340" cy="283" r="7"/><circle cx="317" cy="331" r="5"/><circle cx="374" cy="177" r="6"/>
    <circle cx="398" cy="314" r="5"/><circle cx="360" cy="242" r="4"/>
  </g>
  <g fill="none" stroke-linecap="round">
    <path d="M292 257c35-56 74-82 120-78" stroke="#c88f36" stroke-width="11" stroke-dasharray="1 24"/>
    <path d="M303 258c33 24 66 31 101 22" stroke="#c88f36" stroke-width="9" stroke-dasharray="1 20" opacity=".72"/>
  </g>
  <g fill="none" stroke="#2f756d" stroke-width="14" stroke-linecap="round" stroke-linejoin="round">
    <path d="M202 267l48-35 56 25 57-52 61 35"/>
    <path d="M306 257l12 70 45-122"/>
  </g>
  <g stroke="#f7f9f8" stroke-width="8">
    <circle cx="202" cy="267" r="23" fill="#263632"/>
    <circle cx="250" cy="232" r="22" fill="#2f756d"/>
    <circle cx="306" cy="257" r="24" fill="#263632"/>
    <circle cx="363" cy="205" r="22" fill="#c88f36"/>
    <circle cx="424" cy="240" r="21" fill="#7ea69b"/>
    <circle cx="318" cy="327" r="20" fill="#7ea69b"/>
  </g>
</svg>
