<svg xmlns="http://www.w3.org/2000/svg" viewBox="0 0 512 512" role="img" aria-labelledby="title desc">
  <title id="title">conDitar compact C ligand push logo concept</title>
  <desc id="desc">A compact C-shaped pocket opened by a ligand graph pushing outward.</desc>
  <defs>
    <linearGradient id="c-stroke" x1="112" y1="76" x2="404" y2="438" gradientUnits="userSpaceOnUse">
      <stop offset="0" stop-color="#1f342f"/>
      <stop offset=".58" stop-color="#2f756d"/>
      <stop offset="1" stop-color="#263632"/>
    </linearGradient>
    <filter id="soft-shadow" x="-20%" y="-20%" width="140%" height="140%">
      <feDropShadow dx="0" dy="14" stdDeviation="18" flood-color="#1f342f" flood-opacity=".16"/>
    </filter>
  </defs>
  <rect width="512" height="512" rx="112" fill="#f7f9f8"/>
  <path
    d="M379 119c-41-34-98-44-149-26-72 25-115 99-96 174 18 73 86 122 161 114 31-3 61-17 85-39"
    fill="none"
    stroke="url(#c-stroke)"
    stroke-width="76"
    stroke-linecap="round"
    filter="url(#soft-shadow)"
  />
  <path
    d="M351 154c-29-21-68-26-102-11-49 21-76 75-62 126 14 49 59 83 110 80"
    fill="none"
    stroke="#d9e8e2"
    stroke-width="12"
    stroke-linecap="round"
  />
  <g fill="none" stroke="#2f756d" stroke-width="16" stroke-linecap="round" stroke-linejoin="round">
    <path d="M178 273l55-48 62 14 72-83"/>
    <path d="M233 225l24 87 38-73"/>
    <path d="M295 239l70 34"/>
  </g>
  <g stroke="#f7f9f8" stroke-width="8">
    <circle cx="178" cy="273" r="26" fill="#263632"/>
    <circle cx="233" cy="225" r="25" fill="#2f756d"/>
    <circle cx="295" cy="239" r="27" fill="#263632"/>
    <circle cx="367" cy="156" r="25" fill="#c88f36"/>
    <circle cx="365" cy="273" r="22" fill="#7ea69b"/>
    <circle cx="257" cy="312" r="22" fill="#7ea69b"/>
  </g>
</svg>
