<svg xmlns="http://www.w3.org/2000/svg" viewBox="0 0 512 512" role="img" aria-labelledby="title desc">
  <title id="title">conDitar compact C ring ligand logo concept</title>
  <desc id="desc">A C-shaped pocket opened by a ring-like ligand graph.</desc>
  <defs>
    <linearGradient id="c-stroke" x1="112" y1="76" x2="402" y2="438" gradientUnits="userSpaceOnUse">
      <stop offset="0" stop-color="#263632"/>
      <stop offset=".55" stop-color="#2f756d"/>
      <stop offset="1" stop-color="#1f342f"/>
    </linearGradient>
    <filter id="soft-shadow" x="-20%" y="-20%" width="140%" height="140%">
      <feDropShadow dx="0" dy="14" stdDeviation="18" flood-color="#1f342f" flood-opacity=".16"/>
    </filter>
  </defs>
  <rect width="512" height="512" rx="112" fill="#f7f9f8"/>
  <path
    d="M369 128c-37-35-91-48-141-34-73 20-121 91-111 166 10 76 74 135 151 136 43 1 84-16 114-45"
    fill="none"
    stroke="url(#c-stroke)"
    stroke-width="76"
    stroke-linecap="round"
    filter="url(#soft-shadow)"
  />
  <path
    d="M350 168c-24-28-63-41-100-32-53 13-88 63-82 117 7 54 53 95 107 95"
    fill="none"
    stroke="#d9e8e2"
    stroke-width="12"
    stroke-linecap="round"
  />
  <g fill="none" stroke="#2f756d" stroke-width="15" stroke-linecap="round" stroke-linejoin="round">
    <path d="M209 245l45-38 55 22 6 62-48 37-56-21z"/>
    <path d="M309 229l60-56"/>
    <path d="M315 291l58 35"/>
  </g>
  <g stroke="#f7f9f8" stroke-width="8">
    <circle cx="209" cy="245" r="24" fill="#263632"/>
    <circle cx="254" cy="207" r="23" fill="#2f756d"/>
    <circle cx="309" cy="229" r="25" fill="#263632"/>
    <circle cx="315" cy="291" r="24" fill="#2f756d"/>
    <circle cx="267" cy="328" r="23" fill="#263632"/>
    <circle cx="211" cy="307" r="22" fill="#7ea69b"/>
    <circle cx="369" cy="173" r="24" fill="#c88f36"/>
    <circle cx="373" cy="326" r="22" fill="#7ea69b"/>
  </g>
</svg>
