<svg xmlns="http://www.w3.org/2000/svg" viewBox="0 0 512 512" role="img" aria-labelledby="title desc">
  <title id="title">conDitar pocket and molecule logo concept</title>
  <desc id="desc">An abstract protein pocket wrapping around a generated molecular graph.</desc>
  <defs>
    <linearGradient id="pocket-fill" x1="96" y1="82" x2="424" y2="430" gradientUnits="userSpaceOnUse">
      <stop offset="0" stop-color="#ecf5f1"/>
      <stop offset="1" stop-color="#d9e8e2"/>
    </linearGradient>
    <filter id="soft-shadow" x="-20%" y="-20%" width="140%" height="140%">
      <feDropShadow dx="0" dy="14" stdDeviation="18" flood-color="#1f342f" flood-opacity=".16"/>
    </filter>
  </defs>
  <rect width="512" height="512" rx="104" fill="#f7f9f8"/>
  <path
    d="M119 271c-24-41-20-94 10-132 33-42 91-57 141-38 29 11 41 29 72 33 28 4 48-8 64 6 18 15 14 47 5 70-12 33-36 45-44 70-10 32 16 51 3 80-15 33-62 47-103 38-38-9-54-35-87-46-32-11-50 3-70-18-17-18-7-40 9-63z"
    fill="url(#pocket-fill)"
    stroke="#263632"
    stroke-width="18"
    stroke-linejoin="round"
    filter="url(#soft-shadow)"
  />
  <path
    d="M151 253c-12-31-5-67 19-91 26-26 67-34 101-18"
    fill="none"
    stroke="#7ea69b"
    stroke-width="11"
    stroke-linecap="round"
  />
  <g fill="none" stroke-linecap="round" stroke-linejoin="round">
    <path d="M202 279l54-30 57 31 45-67" stroke="#2f756d" stroke-width="15"/>
    <path d="M256 249l9 70 48-39" stroke="#2f756d" stroke-width="15"/>
  </g>
  <g stroke="#f7f9f8" stroke-width="8">
    <circle cx="202" cy="279" r="27" fill="#263632"/>
    <circle cx="256" cy="249" r="24" fill="#2f756d"/>
    <circle cx="313" cy="280" r="27" fill="#263632"/>
    <circle cx="358" cy="213" r="24" fill="#c88f36"/>
    <circle cx="265" cy="319" r="22" fill="#7ea69b"/>
  </g>
</svg>
